<svg width="10" height="12" viewBox="0 0 10 12" fill="none" xmlns="http://www.w3.org/2000/svg">
<path d="M1.19067 4.35798C1.19067 6.31652 2.80274 7.91897 4.77304 7.91897C6.74334 7.91897 8.35541 6.31652 8.35541 4.35798C8.35541 2.39944 6.74334 0.796997 4.77304 0.796997C2.80274 0.796997 1.19067 2.39944 1.19067 4.35798ZM7.5125 4.35798C7.5125 5.85569 6.27974 7.08109 4.77304 7.08109C3.26634 7.08109 2.03358 5.85569 2.03358 4.35798C2.03358 2.86027 3.26634 1.63488 4.77304 1.63488C6.27974 1.63488 7.5125 2.86027 7.5125 4.35798Z" fill="black"/>
<path d="M0.600574 11.7304C1.71743 10.6206 3.19252 10.0134 4.77298 10.0134C6.35344 10.0134 7.82853 10.6206 8.94539 11.7304L9.54596 11.1336C8.27106 9.87726 6.5747 9.17578 4.77298 9.17578C2.97126 9.17578 1.2749 9.87726 0 11.1336L0.600574 11.7304Z" fill="black"/>
</svg>
