<svg width="12" height="16" viewBox="0 0 12 16" fill="none" xmlns="http://www.w3.org/2000/svg">
<path fill-rule="evenodd" clip-rule="evenodd" d="M7.79346 6.13972C7.79346 6.47026 8.07057 6.73852 8.41201 6.73852C8.75346 6.73852 9.03057 6.47026 9.03057 6.13972V4.64553H10.7629V14.8024H1.23711V4.64553H2.96876V6.13972C2.96876 6.47026 3.24587 6.73852 3.58731 6.73852C3.92875 6.73852 4.20586 6.47026 4.20586 6.13972V4.64553H7.79346V6.13972ZM9.03057 3.44793V2.88623C9.00335 1.3034 7.6846 0.026356 6.04956 0.000407944C4.37576 -0.0263385 2.99639 1.26548 2.96876 2.88623V3.44793H0.618557C0.277113 3.44793 0 3.71619 0 4.04673V15.4012C0 15.7317 0.277113 16 0.618557 16H11.3814C11.7229 16 12 15.7317 12 15.4012V4.04673C12 3.71619 11.7229 3.44793 11.3814 3.44793H9.03057ZM4.20586 3.44793H7.79346V2.88623C7.77202 1.92735 6.95182 1.16647 5.96131 1.18683C5.0005 1.20679 4.22648 1.95609 4.20586 2.88623V3.44793Z" fill="black"/>
</svg>
