<svg width="11" height="11" viewBox="0 0 11 11" fill="none" xmlns="http://www.w3.org/2000/svg">
<g clip-path="url(#clip0)">
<path d="M4.25871 0C1.9089 0 0 1.9089 0 4.25871C0 6.60852 1.9089 8.51742 4.25871 8.51742C5.18811 8.51742 6.04737 8.21681 6.7488 7.71077L10.0455 11L10.7495 10.2961L7.49283 7.03188C8.13163 6.28536 8.51742 5.31587 8.51742 4.25871C8.51742 1.9089 6.60852 0 4.25871 0ZM4.25871 0.501025C6.33796 0.501025 8.0164 2.17946 8.0164 4.25871C8.0164 6.33796 6.33796 8.0164 4.25871 8.0164C2.17946 8.0164 0.501025 6.33796 0.501025 4.25871C0.501025 2.17946 2.17946 0.501025 4.25871 0.501025Z" fill="black"/>
</g>
<defs>
<clipPath id="clip0">
<rect width="10.7495" height="11" fill="white"/>
</clipPath>
</defs>
</svg>
